# xmcd
#
# Track frame offsets:
#	150
#	23707
#	46821
#	73970
#	93060
#	112188
#	132945
#	153991
#	174508
#	200335
#	218125
#	236806
#	252828
#	272643
#	289034
#	301306
#	328888
#
# Disc length: 4725 seconds
#
# Revision: 0
# Processed by: cddbd v1.5.2PL0 Copyright (c) Steve Scherf et al.
# Submitted via: EasyCDDAExtractor 11.9.9.666
#
DISCID=f6127311
DTITLE=Expresion of the Andes - 2007
DYEAR=2007
DGENRE=Folklore
TTITLE0=El condor pasa
TTITLE1=Caballo Viejo
TTITLE2=Vaso de Cristal/Mala Malita/Normal de Chupaca
TTITLE3=Carnaval de Arequipa
TTITLE4=Amor Amor
TTITLE5=Fiesta de la Selva/La Tangarana
TTITLE6=Moliendo Café
TTITLE7=Sanjuanito
TTITLE8=El Cilulo
TTITLE9=Vírgenes del Sol
TTITLE10=El Negro Jose
TTITLE11=Para un Viejo Corazón
TTITLE12=Zambito
TTITLE13=Ansiedad
TTITLE14=Valicha
TTITLE15=Todos Vuelven
TTITLE16=Guantanamera
EXTD=
EXTT0=
EXTT1=
EXTT2=
EXTT3=
EXTT4=
EXTT5=
EXTT6=
EXTT7=
EXTT8=
EXTT9=
EXTT10=
EXTT11=
EXTT12=
EXTT13=
EXTT14=
EXTT15=
EXTT16=
PLAYORDER=
